<svg id="Layer_1" data-name="Layer 1" xmlns="http://www.w3.org/2000/svg" viewBox="0 0 994.6 539.97"><defs><style>.cls-1{fill:#fc0048;}.cls-2{fill:#fff;}</style></defs><title>Image1</title><path class="cls-1" d="M1089.71,805.36c-6.1,0-11.62.31-17.1-.11-3.68-.28-5.35-3-4.71-6.7,2.27-13,4.65-26,7-39a5.88,5.88,0,0,0,.06-3.08,40.48,40.48,0,0,0-2.86-4.8c-1.59,1-4.15,1.77-4.6,3.17a136,136,0,0,0-3.67,15.54c-1.32,6.79-2.72,13.58-3.52,20.44-.54,4.58-.1,9.27-.1,14.7-4.54,0-10.07.37-15.53-.13-3.39-.31-5.52-2.72-4.8-6.64,2.33-12.81,4.85-25.59,6.77-38.45.41-2.78-.91-8.18-2.2-8.44-4.7-.92-5.72,3.63-6.4,7.1-2.39,12.19-4.64,24.42-6.51,36.71-.41,2.67,1,5.61,1.82,9.91-6.34-.3-12.41-.31-18.38-1.1-1.23-.17-3.17-3.47-2.92-5,2.93-18.47,6.32-36.87,9.26-55.33.4-2.54-1-5.36-1.64-8.24,6-3.13,19.63-1.32,22.09,2.41,5.27-1.56,10.1-3.87,15.07-4.24,5.44-.4,10.68,1.51,11.47,7.15,4.45-2.42,8.35-5.83,12.74-6.67,9.74-1.87,17.28,3.35,14.62,14.38-3.69,15.26-5.69,30.95-8,46.52C1087.22,798.27,1088.82,801.38,1089.71,805.36Z" transform="translate(-618.87 -266.61)"/><path class="cls-1" d="M1543.89,805.41c-5.4,0-10.76.27-16.08-.09-3.64-.25-5.54-2.65-4.86-6.5q3.43-19.29,6.89-38.57a2,2,0,0,0,.05-1c-.87-2.56-1.29-6.89-2.8-7.31-3.93-1.1-5,2.83-5.61,5.86-2.69,12.84-5.4,25.69-7.61,38.61-.4,2.34,1.53,5.07,2.61,8.28-6.42,1.24-12.69,1.76-18.77-.29-1.33-.45-2.74-3.67-2.48-5.38,2.72-17.87,5.88-35.68,8.65-53.54.45-2.92-.46-6.05-.78-9.59,4.59-2.79,18-1.36,22.89,3,12.67-7.62,19-7,25.61,2,4.35-2.3,8.33-5.83,12.72-6.43,8.87-1.22,16.72,2.06,14.25,13.89-3.24,15.54-5.92,31.21-8.36,46.9-.45,2.87,1.41,6.09,2.42,10-6.11,0-11.92.38-17.65-.15-3.43-.32-4.55-3.32-4-6.7q3.43-19.3,6.83-38.59a6.14,6.14,0,0,0,.13-3.08,42.07,42.07,0,0,0-2.77-5c-1.72,1.14-4.4,1.92-5,3.49a78.46,78.46,0,0,0-3.2,13c-1.57,8.3-3.26,16.61-4.27,25C1542.32,796.86,1543.41,800.7,1543.89,805.41Z" transform="translate(-618.87 -266.61)"/><path class="cls-1" d="M1178.84,766.74c-.29,12.61-7.65,24.51-2.54,38.4-5.83,0-11.47.41-17-.17-2.88-.3-4.29-2.7-3.65-6.27q6.49-36.23,12.46-72.54c.37-2.28-1.44-4.91-2.5-8.16,7.23,0,14.33-.65,21.19.37,2.29.34,4.7,4.69,5.75,7.67,2.9,8.27,5.1,16.78,7.64,25.38,4.67-3.68,7.16-25.91,3.57-33.35,6.17,0,12-.4,17.62.28,1.37.17,3.55,4.1,3.25,5.95-3.33,20.41-7.09,40.74-10.69,61.1-.91,5.09-1.76,10.2-2.44,15.33-.43,3.24-1.68,5.17-5.29,4.82-1.55-.16-3.13,0-4.69,0-7.86,0-8.86-1-11-8.73-2.37-8.63-5.08-17.16-7.73-25.71a35.07,35.07,0,0,0-2.1-4.54Z" transform="translate(-618.87 -266.61)"/><path class="cls-1" d="M910.64,805.39c-6.95,0-13.34.28-19.7-.1-4.07-.23-5.51-3.21-4.83-7.08q4.14-23.34,8.35-46.68c1.48-8.27,3.28-16.5,4.3-24.83.31-2.44-1.55-5.15-2.68-8.54,7.23,0,14.6-.65,21.77.26,3.85.49,3.51,5,2.92,8.35-1,5.6-2.12,11.18-3.23,16.75-.57,2.86.34,5.2,3.32,5.26s7.49,2.31,8.63-2.84A192,192,0,0,0,933,725.62c.22-2-1.5-4.24-2.86-7.76h13.45c2.26,0,4.52-.09,6.77.06,3.66.26,5.32,2.4,4.68,6-3.24,18-6.58,36-9.83,54-1,5.45-2,10.92-2.52,16.42a14.82,14.82,0,0,0,1.28,6.41c1.21,3.17.29,4.73-3,4.78-5.2.08-10.42.22-15.61-.09-3.93-.23-6-2.72-5.32-6.71q2.19-12.66,4.75-25.26c1.48-7.27-1.6-10.25-8.88-8a4.86,4.86,0,0,0-2.56,3.22c-1.8,8.63-3.71,17.28-4.83,26C908.07,797.74,909.73,801.15,910.64,805.39Z" transform="translate(-618.87 -266.61)"/><path class="cls-1" d="M1307.5,768c3.38-9.73,6.88-19.42,10.06-29.22,1-2.91,2.18-4.25,5.38-4,3.42.29,6.89.06,11.73.06.49,10.86,1,21.39,1.45,31.93,4.44-10,10.53-19.43,8.45-31.89,4.94,0,10.57-.36,16.11.15,3,.27,4.75,2.52,3.36,6.06-7.93,20.13-15.71,40.31-23.81,60.35a7.55,7.55,0,0,1-5.19,3.9c-13.87,1.43-14.42.73-14.51-13.14a41.6,41.6,0,0,0-1.94-12.14c-2.25,5.74-4.4,11.52-6.79,17.19-1.17,2.77-2.42,7.26-4.28,7.62-4.77.93-9.93.18-14.87-.41-.88-.1-2.05-2.6-2.12-4-.53-11-.79-22.12-1.19-33.18-.27-7.43-.32-14.89-1.12-22.26-.35-3.21-2.34-6.24-3.87-10.08,5.83,0,11.51-.51,17,.17,4.08.5,4.85,4.52,4.9,8.09.12,8.16,0,16.31,0,24.46Z" transform="translate(-618.87 -266.61)"/><path class="cls-1" d="M709,718a34.4,34.4,0,0,1,.52,5.69c-.83,10.16-2.08,11.25-12.42,11.22h-5.2c-11.57,0-12.81.81-15.27,12.35-1.88,8.8-3.37,17.7-4.64,26.61a17.78,17.78,0,0,0,.93,8.59,6.44,6.44,0,0,0,4.87,3.39c2,0,5.06-1.58,5.6-3.17a82.72,82.72,0,0,0,3-14.55,3.6,3.6,0,0,0-1.86-3c-3.94-1.11-4.3-3.84-4.07-7.24.58-8.78.58-8.85,9.25-8.85,4,0,8,.05,12,0,4.5-.06,6.57,2.29,5.86,6.53-2.35,14-4.85,28-7.41,41.92-.91,5-3.9,8.33-9.1,8.49-9.17.29-18.43.87-27.52-.05-11.64-1.17-14.48-7.78-13.84-19.4.89-16,4.49-32,7.35-47.85,1.24-6.89,2.83-14.1,9.92-17.76a22.74,22.74,0,0,1,9.28-2.82C687,717.75,697.7,718,709,718Z" transform="translate(-618.87 -266.61)"/><path class="cls-1" d="M977.23,806.4h-1c-17.46,0-23.39-7.13-20.11-24.43,2-10.61,4-21.23,6.32-31.78,2.55-11.5,11.15-15.76,21.76-16.19,5.57-.23,11.31.87,16.79,2.13a10.29,10.29,0,0,1,8.19,9.73c.8,16.76-2.45,33-8.2,48.65-3.33,9-11.17,11.64-20.06,11.9C979.66,806.44,978.45,806.4,977.23,806.4Zm13.27-46.89c.14-7.2-2.63-10.32-6.51-9a8,8,0,0,0-4.48,4.91c-2,9.22-3.78,18.54-5,27.9-.26,2,1.78,5.71,3.59,6.38,3.1,1.15,6.15-1,6.94-4.42C987.2,776,989,766.6,990.5,759.51Z" transform="translate(-618.87 -266.61)"/><path class="cls-1" d="M1245.52,806.45h-1c-17-.08-23.11-7.59-19.79-24.35,2.1-10.6,3.7-21.33,6.44-31.77,3.58-13.67,10.42-15,22-16.34,4.52-.52,9.31.27,13.84,1.16,6.83,1.33,11.68,6.13,10.9,12.48-1.83,14.85-3.69,29.84-7.51,44.26C1267.28,803.69,1260.63,806.45,1245.52,806.45Zm14.37-50.8c-1.41-1.47-2.92-4.3-5.05-4.9-1.66-.47-5.59,1.49-5.95,3a285.86,285.86,0,0,0-5.72,29.38c-.28,2.09,2.16,5.92,4.15,6.62,3.19,1.12,5.91-1.53,6.64-4.91C1256,775.62,1257.74,766.35,1259.89,755.65Z" transform="translate(-618.87 -266.61)"/><path class="cls-1" d="M1460,806.4h-2.08c-14.81,0-21.25-6.58-19.4-21.28a271.81,271.81,0,0,1,6.28-33c3.27-12.91,8.61-17.26,21.72-18.16a55.19,55.19,0,0,1,16.27,1.86c6.46,1.55,9.76,5.83,9.75,12.29,0,15.51-3.37,30.48-8.15,45.16-3,9.25-10.25,12.44-19.19,13-1.73.11-3.47,0-5.2,0Zm14.25-50.95c-1.51-1.45-3.2-4.41-5.23-4.67s-5.59,2-6,3.8a261,261,0,0,0-5.42,28.38c-.29,2.15,1.86,6.09,3.74,6.73,3.39,1.17,6.32-1.3,7.11-5C1470.35,775.47,1472.09,766.19,1474.21,755.45Z" transform="translate(-618.87 -266.61)"/><path class="cls-1" d="M1432.68,781.33c-.23,7.59.8,15.18-3.81,21.28-1.58,2.09-5.27,3.36-8.1,3.58a180.48,180.48,0,0,1-20.28.21c-8.53-.28-14.78-7.13-14.23-17.14a359,359,0,0,1,4.22-36.37c1.24-7.76,3.54-15.37,5.78-22.93,2.6-8.81,9.58-11.76,18-12,7.11-.22,14.22.05,21.33-.08,3.28-.06,4.43,1.41,4,4.42s-.43,6.05-1.64,8.61c-.81,1.75-3.46,3.9-5.14,3.78-18.1-1.28-17.32,3.13-20.45,17.73-1.63,7.6-2.87,15.29-3.92,23-1.11,8.13,1.23,10.62,9.26,10.66,1.74,0,3.47-.06,5.2,0C1426.79,786.26,1430.59,786.26,1432.68,781.33Z" transform="translate(-618.87 -266.61)"/><path class="cls-1" d="M757.59,783.32c-.83,5.38-1.13,10.91-2.71,16.06-.74,2.43-3.76,5.59-6,5.86-7.86.9-15.92,1.47-23.76.68-10-1-15-9.24-13.32-21.41a271.66,271.66,0,0,1,6.31-31.72c1.83-6.91,4.43-14.06,12.42-16.79,8.22-2.82,16.54-3.47,24.74-.26,5.86,2.3,9.2,6.85,8.9,13.28A131.7,131.7,0,0,1,762.31,766c-.92,5.17-4.53,7.44-9.8,7.32s-10.4.05-15.6,0c-3.24,0-4.8,1.34-4.7,4.67.12,3.6-.47,8.54,4.11,8.74,6.71.29,14.33,3.07,19.86-4Zm-22.21-23c4.23-.35,9,3.57,11.34-2.26,1.2-2.94.68-6.62-3.69-7.6C739.07,749.53,736.65,752.43,735.38,760.28Z" transform="translate(-618.87 -266.61)"/><path class="cls-1" d="M1145.68,783.58c-.66,4.89-1.34,10.24-2.12,15.58-.55,3.74-2.87,6.08-6.55,6.27-7.92.42-15.94,1.23-23.78.46-9.5-.94-14.5-8.65-13-20.58a217.89,217.89,0,0,1,7-34.15c4.63-15.62,22.31-22.39,37.06-15.14,7.1,3.49,10.42,10.89,8.19,21-2.78,12.53.73,17-19.06,16.24-2.24-.09-4.51.1-6.75,0-4-.21-6.26,1.16-6.16,5.58.12,5.25,2.12,8.11,6.21,8.21,2.77.07,5.62.45,8.29-.07C1138.48,786.26,1141.81,784.84,1145.68,783.58Zm-17.07-21.67c4.58-.6,6.93-1.34,6.85-5.85-.06-3.68-1.55-5.69-5.06-5.67-4.42,0-5.92,3.59-6,7C1124.31,758.86,1127.1,760.41,1128.61,761.91Z" transform="translate(-618.87 -266.61)"/><path class="cls-1" d="M798.47,734.28l12,1c-1,4.44-1.32,8.94-3.11,12.76-.83,1.76-4.47,2.89-6.91,3-3.81.23-5.69,1.6-6.32,5.34-1.4,8.37-3.24,16.68-4.37,25.08-.26,1.95,1.42,5.86,2.48,6,2.77.26,5.73-1,8.52-1.88.66-.22,1-1.57,1.4-2.4l1.35.3c-.86,5.86-1.28,11.84-2.83,17.51-.53,1.93-3.81,4.15-6,4.36a143.63,143.63,0,0,1-18.21.15c-6.23-.17-9.49-4-8.54-10.11,2-13.08,4.37-26.11,6.33-39.19a7.94,7.94,0,0,0-1.58-5.74c-2.73-3.09-1-12.46,3-13.52,6.65-1.75,11.17-6.15,14.32-11.83,1.75-3.14,4.2-4,6.75-2.85,1.32.59,1.89,3.52,2.19,5.49C799.25,729.52,798.72,731.47,798.47,734.28Z" transform="translate(-618.87 -266.61)"/><path class="cls-1" d="M880.86,783.69c-.7,5.4-1.26,10.82-2.16,16.19-.61,3.7-2.92,5.71-6.9,5.65-6.08-.1-12.16.1-18.23-.1s-9.15-4.32-8.09-10.47c2.26-13.08,4.56-26.15,6.72-39.25.23-1.42.15-3.92-.6-4.3-4-2-2.18-5.07-2.07-8,.16-3.92,1.93-5.68,5.5-7.52a32.76,32.76,0,0,0,11.54-9.73c2.53-3.55,4.8-5,9.58-3.91.12,1.74.65,3.91.37,6-.83,6-.48,6.52,5.7,6.64,1.54,0,3.09,0,5.22,0-.39,3.65-.54,6.92-1.13,10.1-.76,4.09-3.26,6.56-7.63,6.22s-6.71,1.63-7.43,6c-1.34,8.17-3.12,16.28-4.24,24.49-.25,1.81,1,5,2.42,5.6,2.09.82,5,.19,7.35-.48,1.21-.33,2-2.08,3-3.19Z" transform="translate(-618.87 -266.61)"/><path class="cls-1" d="M819.18,718c6.69,0,13.58-.33,20.4.26,1.44.13,3.94,3.83,3.66,5.51-3.24,19.38-6.93,38.69-10.48,58-.81,4.39-1.74,8.77-2.27,13.21a9.6,9.6,0,0,0,1.09,4.93c2.09,4.31,1.56,5.43-3.27,5.53-4.68.1-9.38.17-14-.1-4.92-.29-6.51-2.9-5.61-7.76,4.32-23.17,8.66-46.33,12.64-69.56C821.77,725.24,820.1,722.07,819.18,718Z" transform="translate(-618.87 -266.61)"/><path class="cls-1" d="M1131.87,605.89c-5.72-12.25-2.54-24.62,4.33-36.61,3.07-5.38,8.14-8,14-8.84,14.74-2.18,29.54-2.51,44.19.52,7.69,1.59,12.43,8,11.37,15.7-1.52,11.13-3.08,22.41-12.08,31.53,8.51,5.77,8.24,13.89,6.1,22.33-2.25,8.87-4.23,17.86-7.24,26.47s-8.87,14.37-18.32,15.72a177.61,177.61,0,0,1-52.19.09c-8.53-1.3-13.18-7-12.55-15.68,1-13.47,3.55-26.84,10.1-38.77C1122.16,613.59,1127.4,610.27,1131.87,605.89Zm36.77,24.91c0-5.5-1.94-7.72-7.59-8.45-10.27-1.34-17.84,5.86-18.47,17.59-.53,9.65,4.64,13.47,14,11C1164.48,648.77,1168.06,641.22,1168.64,630.8Zm-5.13-29.55c8.49,0,13.34-4.57,13.27-12.44,0-5.39-3.12-8.07-9.11-8-7.29.13-12.27,5.21-12.33,12.59C1155.29,599.55,1157.09,601.27,1163.51,601.25Z" transform="translate(-618.87 -266.61)"/><path class="cls-1" d="M1248.67,642c1.85,1.59,3.23,2.38,4.06,3.56,2.11,3,4.35,5.16,8.44,4.89,7.75-.51,15.56-.24,23.25-1.15,5.93-.69,9.87-5.68,10.36-11.33.28-3.36-2-3.47-4.44-3.47-7.11,0-14.25.35-21.32-.15a32.93,32.93,0,0,1-12.35-3.14c-6.19-3.13-8.47-9-8.73-15.83-.46-12.14,2.53-23.55,6.82-34.71,5.12-13.34,16-18.92,29.23-20.74a95.2,95.2,0,0,1,32.33.83c12.92,2.66,21,10.76,19.88,23.7-1.37,15.75-4.2,31.42-7.29,47-1.7,8.57-5.07,16.83-7.93,25.15-4.23,12.28-14,16.54-25.91,16.81-14.56.32-29.13.14-43.7,0-7.12,0-9.27-3.28-7.53-10.37C1245.43,656.56,1246.85,650,1248.67,642ZM1301.48,613c.94-7.64,2.25-15.05,2.66-22.51.4-7.27-5.72-11.23-12.58-8.76-8.11,2.92-14.29,16.81-11.57,25.65,1.13,3.66,3.54,5.45,7.14,5.58C1291.59,613.1,1296.07,613,1301.48,613Z" transform="translate(-618.87 -266.61)"/><path class="cls-1" d="M1031,560.86c-1.84,6.85-3,12.78-5.19,18.26-.75,1.85-4.28,3.43-6.64,3.59-7.08.47-14.23-.17-21.32.25-13.28.8-14.32,2.25-19.79,15.67a46.19,46.19,0,0,0,6.76,1.39c8.62.51,17.28.49,25.87,1.31,7.67.73,13.8,7.61,14.07,15.51a84.24,84.24,0,0,1-8.19,39.26c-3.92,8.27-11.26,13.27-20.33,15.58a85.1,85.1,0,0,1-40.53.69c-12.58-2.89-20.2-11.65-19.11-24.52a293.82,293.82,0,0,1,6.89-42.28c2.1-8.93,6-17.65,10.31-25.78,7.17-13.44,19.29-19.07,34.34-18.95C1001.8,561,1015.48,560.86,1031,560.86Zm-52.11,60.49c-3.77-1-7.82-.08-8.62,5.88-.7,5.3-1.69,10.66-1.52,16,.23,7.36,5.41,10.63,12.52,8.66,7.29-2,9.93-7.69,11.44-14.38C995.6,624.65,993.07,621.35,978.88,621.35Z" transform="translate(-618.87 -266.61)"/><path class="cls-1" d="M1577,623.59c-1.25,5.54-2.17,10.45-3.49,15.25-1.22,4.44-4.86,5.8-9,5.4-4.46-.44-6.3,1.54-6.92,5.63-.46,3.07-1.77,6.08-1.8,9.13s1,6.08,1.74,9.08a30.66,30.66,0,0,0,1.57,4c-1.41.46-2.81,1.28-4.23,1.3-8.67.12-17.34.18-26,0-5.28-.09-7.58-3.35-6.43-8.51,1.08-4.87,2.3-9.71,3.2-14.61.69-3.73,0-6.27-5-6.12-10,.3-20.12.15-30.18.1-7.35,0-9.12-2.3-8.2-9.45a37.11,37.11,0,0,1,12.07-23.57c16.32-15.26,31.75-31.47,47.75-47.08a13,13,0,0,1,7.54-3.18,161,161,0,0,1,17.16-.09c7.8.19,9.84,2.8,8.24,10.23-3.28,15.2-6.65,30.38-9.79,45.6-1.24,6-.63,6.42,5.56,6.56C1572.56,623.34,1574.28,623.46,1577,623.59Zm-62.46-2.47c5.37,3.33,10.7,2,15.84,1.85.57,0,1.43-1.07,1.58-1.76,1.44-6.91,2.76-13.84,4.11-20.77l-1.49-.49Z" transform="translate(-618.87 -266.61)"/><path class="cls-1" d="M1331.12,673.36c2.63-21.13,8.71-39.38,26.32-51.55,8.35-5.78,17.25-10.78,25.75-16.35,4.85-3.18,8.88-7.11,9.69-13.4.61-4.67-1.42-7.65-5.83-8.06-7.9-.72-15.86-1-23.8-1.09-7.56-.12-9.59-2.44-8-9.9,2.5-12.15,2.5-12.28,15-12.11,11.92.16,23.84,1,35.76.89,10.53-.11,17.66,9.47,18,20.19.72,21.43-9.46,35.93-27.89,45.87-7.7,4.17-14.75,9.59-21.91,14.7-1.87,1.33-3,3.65-5.36,6.58,3.45.53,5.87,1.18,8.29,1.22,7.8.14,15.61-.11,23.41.11,5,.14,9.28-.61,11.55-5.85.35-.81,1.77-1.15,3.38-2.12.53,10.17-2.22,18.86-5.4,27.3-.68,1.8-4.5,3.39-6.89,3.41C1379.46,673.45,1355.72,673.36,1331.12,673.36Z" transform="translate(-618.87 -266.61)"/><path class="cls-1" d="M822.69,643.76c-2,8.51-3.89,17.06-6.13,25.51-.34,1.27-2.15,2.5-3.56,3.05a17.22,17.22,0,0,1-6.08,1.1q-33,.11-66.08,0c-.85,0-1.7-.17-2.93-.3-.19-9.08,3-17.23,5.78-25.45,6-17.47,20.29-26.73,35.06-35.64a143.55,143.55,0,0,0,16-11.2c3.87-3.13,5.7-7.68,3.74-12.6S792,583,787.61,582.91c-6.59-.15-13.18,0-19.77-.07-5.84-.07-7-1.06-6.45-6.67A73.6,73.6,0,0,1,764.31,563c.29-1,2.24-2.07,3.41-2.06,15.74.22,31.49.35,47.21,1.08,8.47.4,14.4,8.65,14.92,19.65.91,19.16-6.34,34-23.3,43.7-6.92,4-13.82,8-20.47,12.34-4.23,2.78-8.27,6-10.07,11.64a9.89,9.89,0,0,0,2.67,1c10.58.06,21.17.3,31.73-.16,2.44-.11,5-2.43,7-4.27,1.1-1,1.15-3.13,1.68-4.75Z" transform="translate(-618.87 -266.61)"/><path class="cls-1" d="M1123.67,560.86c-2.15,8.06-3,15.65-6.11,22.09-12.17,24.88-25.08,49.4-37.72,74.06-2.19,4.27-4.38,8.51.48,12.6.55.47.28,1.91.43,3.2a23,23,0,0,1-3.67.67c-10.06,0-20.12.14-30.17,0-6.94-.09-8.45-2.64-5.41-8.63q16.55-32.61,33.15-65.18c1.89-3.69,4.14-7.2,6-10.92,2.44-5,1.8-5.88-3.91-5.9-9.36,0-18.73,0-28.09,0-5.73,0-7.37-1.8-6.91-7.55a13.36,13.36,0,0,1,.17-1.55c2.53-12.9,2.53-12.9,15.79-12.9h66Z" transform="translate(-618.87 -266.61)"/><path class="cls-1" d="M878.53,673.64c-12.26,0-23.7.14-35.13-.06-5.18-.1-6.88-3.39-4.48-8.07q18.63-36.21,37.3-72.39c1.52-3,2.7-6.08,4.53-10.25-11.65,0-21.82,0-32,0-8.77,0-10.41-2-8.48-10.54,2.6-11.48,2.6-11.48,14.28-11.48h66c-1.31,9.68-2.86,18.41-7.08,26.55q-18.18,35.05-36.11,70.23c-2.05,4-3.7,8,.56,11.79C878.55,670,878.27,671.59,878.53,673.64Z" transform="translate(-618.87 -266.61)"/><path class="cls-1" d="M751.93,560.88c-3.1,9.56-4.87,18.29-8.64,26-11.62,23.82-24,47.26-36.1,70.84-2,3.9-3.24,7.69.48,11.46.73.75.58,2.38,1,4.21-12.4,0-24.16.25-35.9-.12-4.84-.16-6.06-3.17-3.78-7.63q18.81-36.75,37.69-73.46c.39-.77.76-1.56,1.14-2.34,2.86-6,2.26-7-4.13-7-9,0-18,0-27.07,0-5.78,0-7.32-1.46-6.76-7.14a70.28,70.28,0,0,1,2.52-12.13,4.3,4.3,0,0,1,3.07-2.6C700.19,560.85,725,560.88,751.93,560.88Z" transform="translate(-618.87 -266.61)"/><path class="cls-1" d="M1459.41,560.9c5,0,10.07-.11,15.1,0,7.45.2,9.57,2.79,8,10q-8,36.76-16.16,73.5c-.93,4.22-1.81,8.46-2.87,12.65-1.17,4.57-1.43,8.76,2.34,12.5,2,2,.76,3.79-1.69,3.82-9.88.15-19.78.3-29.65-.12-4.1-.18-5.76-3.79-4.83-8q8.28-37.05,16.48-74.12c.83-3.79.09-6.92-4.31-8-3.67-.94-5.1-3.5-4.48-7.07a103.36,103.36,0,0,1,2.78-12.58c.34-1.12,2.36-2.38,3.67-2.45,5.19-.28,10.41-.11,15.61-.11Z" transform="translate(-618.87 -266.61)"/><path class="cls-1" d="M909.46,650.43c3.29,0,6.58,0,9.87,0,4.58,0,6.31,2.52,5.62,6.65a101.16,101.16,0,0,1-3.19,13.56,5,5,0,0,1-3.69,2.65c-6.56.28-13.15.33-19.71.09-4.82-.18-6.66-3-5.71-7.89.07-.34.09-.69.14-1C895.05,650.43,895.05,650.43,909.46,650.43Z" transform="translate(-618.87 -266.61)"/><path class="cls-1" d="M1215.61,650.43c3.11,0,6.22-.08,9.33,0,4.46.14,6.52,2.64,6,7.06a8.81,8.81,0,0,1-.22,1c-4.57,18.27-.23,14.57-18,14.92-12.18.24-17,1.52-12.87-15.13,2-7.79,1.57-7.88,9.58-7.87h6.23Z" transform="translate(-618.87 -266.61)"/><path class="cls-2" d="M994,471.4a87.3,87.3,0,0,1-5.33-10.85c-8.17-20-6.17-36.5-4.35-59.66,3.9-49.49.81-50.46,5.71-73.33,3.08-14.4,7.16-27.32,16.32-40.27a93.55,93.55,0,0,1,14.21-15.85l432-4.3a45.34,45.34,0,0,1,24.83,5.23,46.06,46.06,0,0,1,20.58,23.42L1607,387q3,32.12,6.08,64.24a35.66,35.66,0,0,1-16.95,11.37,35.07,35.07,0,0,1-14.53,1.21c-35.31,4.81-71.76,11.69-109.7,12.07L1156.4,479a648.17,648.17,0,0,0-105.78-9.63C1030.55,469.23,1011.61,470,994,471.4Z" transform="translate(-618.87 -266.61)"/><path d="M1578.9,467.47c3.92,16.17.19,29.9-9.72,42.12a46.35,46.35,0,0,1-33.3,17.42c-28.48,2.27-52.38-15.89-54.83-47.89-2-.11-4.12-.33-6.23-.33q-157.08,0-314.15-.15c-5.91,0-8.79,1.25-10.4,7.47-9,34.7-57,44.31-81.08,20.21-9.86-9.86-14.3-21.48-15.7-34.68-5.93-.62-5.93-.62-6.72,9.2L680.92,479v-7.6H994c-7.77-4.44-8.55-10.64-8.6-16.74,0-4.91-1.72-6.93-6.55-6.35-1,.12-1.53-.08-2.63,0-2.46.13-115.37-1.16-357.3-4.12l.33-6.65H983.45c0-3.26.17-6.86-.05-10.44s-.83-7.29-1.45-12.41H686.84l-.69-9.28H982.21V381H621.64c-.47-2.85-.93-5.7-1.4-8.55H982.32c1-8.28,1.92-16.06,3-24.78h-304l-.34-8.81c169-.22,290.43-.21,297.86.4.92.08,5.22.55,8.06-2,1.39-1.26,2.23-3.26,2.57-6.35.57-5.26,2.68-10.35,4.32-16.32H621.64l-.7-9.88c248-.15,359.29-.1,363,.11,1.74.1,2.72-.29,4.6,0,6,1,9.34-1.23,11-7.18,1.41-5.17,3.69-10.1,5.94-16.1H675.86l.87-9.81c32.25.05,301.62.45,338.85-.27,7.74-.15,11.6-.23,16.86-.54,16.75-1,33.5-3,50.25-4.24,2.18-.16,4.39-.08,6.58-.08,119.64,0,239.28-.14,358.92.24,9.74,0,19.48,3.43,29.17,5.49,1.57.34,3.06,1.7,4.31,2.89,11.54,11,23,22.16,34.54,33.2,19.14,18.32,38.16,36.77,57.62,54.74,3.8,3.51,9.28,5.37,14.2,7.49,16.06,6.89,20.8,13.11,21.53,31.26.22,5.48-.08,11,.08,16.46.11,3.94-1.39,8.32,3.12,11.27.82.54.63,2.85.66,4.36.08,4.38,0,8.78,0,13.17,0,10.25-5.89,16.34-16.24,17.37C1591.41,465.16,1585.68,466.38,1578.9,467.47Zm-78.86-151-17-19.42c-4.47-8.24-11-13.12-20.75-13.09-15.13.05-30.26,0-45.39,0h-23.09V387h147.31c0-6.54.36-12.69-.14-18.77-.28-3.47-1-7.65-3.18-10.11C1525.5,344,1512.69,330.28,1500,316.45ZM1390.79,284h-127q-124.47,0-248.94-.1c-5.3,0-8.36,1.06-10,6.74-5.42,19.47-12.22,38.6-16.8,58.25-2.85,12.25-2.64,25.21-3.81,38h406.5ZM1390.73,390H985.94v48.11c22.38,0,43.81,0,65.25-.09a4.11,4.11,0,0,0,2.83-2c4.76-8.19,12.23-12.95,20.66-16.44,26.28-10.87,57.39-6.74,76.76,16.86,2.77,3.38,5.28,4.32,9.23,4.32q111.55-.12,223.12-.06h6.94Zm152.81,26.84c-10.83,1.17-21.07,1.78-31.12,3.47-17.16,2.88-32.56,9.74-41.59,25.43-4.5,7.83-6.49,17.11-9.73,26.08h-70.34V443.16h-8.58c-72.66,0-145.31-.1-218,.15-7.74,0-14.1-.58-17.61-8.5-.59-1.31-2-2.3-3.2-3.28-19.59-16.27-41.57-19-65.08-10.77-8.43,3-16.74,7.1-21.09,15.66-1.85,3.66-4.25,4.23-7.78,4.21-18.66-.11-37.31-.05-56-.05h-7.65c.57,4.06,1.42,7.05,1.35,10-.32,12.67,4.79,19.35,18.34,18.91,15.14-.48,30.32-.11,45.09-.11,1.51-13.76,4.41-25,12.93-33.93,11.78-12.4,27-14.65,42.86-13.58,20,1.36,36.43,9.33,44.37,29.12,3.19,7.95,4.93,16.49,7.35,24.84h316.56c.38-23.69,16.08-41.1,36.74-45.43,9.71-2,20-3.15,29.85-2.25,18.85,1.74,35,6,42,31.26.47,1.7,3.07,3.85,4.78,3.94a26.83,26.83,0,0,0,10.9-1.58c4.18-1.66,10.61-3.89,11.27-6.91,1.64-7.52,2.53-16.42-.18-23.21a37.51,37.51,0,0,1-2.69-12.33c-.32-6.13.17-12.3-.13-18.43-.58-11.62-4.22-21.75-16.42-25.72-14.5-4.71-24.51-15.37-35.14-25.26a23.35,23.35,0,0,0-25.15-4.39c3.4,3.84,6.85,7.46,10,11.36,1.39,1.75,2.94,4,3,6.09C1543.64,380.85,1543.54,398.71,1543.54,416.86Zm-149.88,23.89c25.27,0,50,0,74.78-.09a5.63,5.63,0,0,0,3.81-1.91c10.08-12.38,23.87-17.94,38.93-20.63,9.77-1.75,19.74-2.37,29.59-3.5V390H1393.66ZM1011.8,281.63h19.68q215.6,0,431.18-.06c7,0,12.81,1.92,17.45,7.26a61.58,61.58,0,0,0,4.82,4.56c-.6-2.38-2.34-5.23-1.62-7.16,1.92-5.1-1.07-7.16-4.26-9.7-9.85-7.87-21.82-7.42-33.13-7.46q-161.28-.45-322.57-.06c-28,.07-55.94,1.25-83.88,2.54C1029.63,272,1019.76,274,1011.8,281.63Zm447.61,188,7.89-26h-73.42v26Zm-356-21.36c-15.76-1.74-26,14-25.8,24.48.31,13.26,11.75,24.07,25.87,24.05,14.43,0,25.45-10.82,25.36-24.86C1128.76,457.58,1118.73,448.24,1103.43,448.3Zm402,31.05c0,14.09,11,24.86,25.56,24.88s25.65-10.92,25.66-24.92c0-13.27-12.22-24.87-26-24.71S1505.41,466,1505.4,479.35Zm-28.32-3.55,3.07.81c1.15-3.25,2.67-6.43,3.4-9.78,5.68-26.26,40.5-43.76,67.46-30.77,11.26,5.42,20,13.07,25.38,24.47.83,1.74,2.61,3,3.95,4.53l1.28-1.28c-5.9-20.28-14.19-28.73-31.71-32-13-2.46-26.05-2.37-38.82,1.21-15.7,4.4-26.81,14.07-31.56,30.05C1478.29,467.14,1477.87,471.53,1477.08,475.8Zm10-190.3-1.69,1.51a52.16,52.16,0,0,0,4.07,6.2c12.45,14.26,25.43,28.08,37.29,42.8,5.16,6.41,10.67,5.94,19.26,5.22Zm-397.4,140.24c-14.59.55-30,13.43-30.18,25.07C1066.21,437.69,1076.82,430.3,1089.66,425.74Z" transform="translate(-618.87 -266.61)"/><path d="M1500,316.45c3.4,4.66,6.75,9.34,10.19,14,2.81,3.78,6.73,7.11,4.46,12.7-2.52,6.22-7.9,7-13.52,7-23.49.07-47,0-70.47,0-16.77,0-23.89-4.59-25-19.8-.79-11.24-3.23-22.35-4.28-33.57-.59-6.37,3.51-10,10-10,17.35,0,34.71-.47,52,.28,4.89.21,9.7,3.79,14.41,6.09,1.91.93,3.47,2.57,5.19,3.89Zm7.51,16.13c-.16,10.48-1.25,11.71-11.52,11.72-2.63,0-5.28-.17-7.89.08-4.4.42-6.64-1.37-7.94-5.67q-6.71-22.08-14.1-43.95c-.59-1.74-2.89-4.11-4.43-4.14q-24.33-.45-48.65-.11c-5.88.09-8.88,4-8.06,9.47,1.6,10.72,3.23,21.43,5,32.12,1.61,9.64,6.18,13.37,16,13.38q37.8,0,75.6,0c3.48,0,7.91.63,8.58-3.82C1510.62,338.84,1508.52,335.63,1507.55,332.58Zm-34.34-30.72c-.44,1.54-.75,2-.64,2.36,2.48,8.34,4.94,16.69,7.55,25,4,12.84,4.07,12.83,17.75,12.49a3.56,3.56,0,0,0,1.31,0c1.4-.69,3.39-1.18,3.93-2.33s-.07-3.27-.95-4.32c-6-7.18-12.22-14.21-18.39-21.26C1480.41,309.93,1477,306.14,1473.21,301.86Zm11.35,8.42L1486,309l-14.44-16.33-1.45,1.3Q1477.34,302.11,1484.56,310.28Z" transform="translate(-618.87 -266.61)"/><path class="cls-2" d="M1477.08,475.8c.79-4.27,1.21-8.66,2.45-12.81,4.75-16,15.86-25.65,31.56-30.05,12.77-3.58,25.81-3.67,38.82-1.21,17.52,3.32,25.81,11.77,31.71,32l-1.28,1.28c-1.34-1.5-3.12-2.79-3.95-4.53-5.39-11.4-14.12-19-25.38-24.47-27-13-61.78,4.51-67.46,30.77-.73,3.35-2.25,6.53-3.4,9.78Z" transform="translate(-618.87 -266.61)"/><path class="cls-2" d="M1089.66,425.74c-12.84,4.56-23.45,11.95-30.18,25.07C1059.63,439.17,1075.07,426.29,1089.66,425.74Z" transform="translate(-618.87 -266.61)"/><path class="cls-1" d="M1213.34,339.31c-.85,4.41-1.69,8.82-2.68,13.94l-6.53.39c2-11.91,3.92-23.11,5.82-34.36,5.56-.75,5.56-.75,12.76,14.69.93-5.59,1.67-10.09,2.47-14.87h6.28c-1.86,10.93-3.52,21.37-5.53,31.74-.22,1.13-2.42,2.6-3.69,2.59a5,5,0,0,1-3.64-2.7c-1.44-3.76-2.33-7.73-3.43-11.63Z" transform="translate(-618.87 -266.61)"/><path class="cls-1" d="M1176.42,353.72l-6.31-.46c.83-6.6,1.6-12.76,2.37-18.93l-2.73-.46c-1.2,6.29-2.4,12.58-3.68,19.33h-6.24c.84-6.59,1.62-12.68,2.39-18.78l-2-.49c-4.73,5.35-3.28,13-6,19.37h-5.65c1.33-9.09,2.6-17.77,4-27.16l19.32,1.71c.72-.15,3.67-1.69,5.49-.83,1.46.69,2.29,4.37,2.08,6.6C1178.83,340.11,1177.55,346.53,1176.42,353.72Z" transform="translate(-618.87 -266.61)"/><path class="cls-1" d="M1364.64,353.34h-6.24c.87-6.59,1.69-12.82,2.52-19l-2.71-.5c-1.24,6.21-2.49,12.42-3.87,19.29h-6.22c.87-6.59,1.67-12.67,2.48-18.76l-2.81-.68c-1.78,6.51-3.55,13-5.36,19.66h-5.65c1.4-9,2.72-17.49,4.18-26.94l17.43,1c-.09.31-.17.63-.25.94,2.59-.51,6-2.23,7.55-1.19s2.34,4.89,2.1,7.38C1367.2,340.57,1365.83,346.55,1364.64,353.34Z" transform="translate(-618.87 -266.61)"/><path class="cls-1" d="M1030.62,318.74c.31,5.64-1.67,7.38-6.19,7.26-1.73,0-4.71,1.43-5.06,2.76a102.11,102.11,0,0,0-2.6,15.88c-.1,1,1.66,2.11,2.56,3.17.93-1,2.57-2,2.66-3.13.32-4,.13-8.07.13-12.61h8.46c-1.12,6.71-1.39,13.76-3.83,19.95-.82,2.08-7.23,2.91-10.94,2.6-2.61-.22-7.22-3.48-7.1-5.1a173.58,173.58,0,0,1,4.22-26.8c.42-1.77,4.42-3.31,7-3.82C1023.26,318.25,1026.81,318.74,1030.62,318.74Z" transform="translate(-618.87 -266.61)"/><path class="cls-1" d="M1118.38,319.06h7.28c-.87,5.94-1.6,11.44-2.51,16.91s-2,11.1-3.18,17.19h-7.06c.7-5,1.35-9.64,2-14.25-5.32-2.15-5.32-2.15-7.58,14.48-1.19.08-2.46.25-3.73.24a35.86,35.86,0,0,1-3.64-.45c1.92-11.49,3.76-22.56,5.67-34h6.54c-.37,4.13-.7,7.75-1.14,12.52C1119.72,330.67,1116.08,323.14,1118.38,319.06Z" transform="translate(-618.87 -266.61)"/><path class="cls-1" d="M1256.37,326.47c9.34-.92,3.58,7.63,6.38,11.08,5-1.93.55-13.14,10.44-10.66.21,4.09.42,8.1.63,12.1l1,.13,3.75-12.43h6.87c-3.44,8.88-6.47,17.33-10.14,25.49-.56,1.26-4.08,1.18-6.49,1.78-.66-3-1.11-5-1.69-7.67-3.56,2.34-2.93,10.5-10.7,5.93Z" transform="translate(-618.87 -266.61)"/><path class="cls-1" d="M1239.37,353.67c-6.43-.12-9-2.71-8.28-8.14a114.42,114.42,0,0,1,2.51-12.67c1.64-6.56,9.2-10.25,14.68-6.58,2.1,1.41,3.48,5.34,3.48,8.11,0,4.27-1.33,8.57-2.4,12.78C1247.94,352.71,1243.38,353.44,1239.37,353.67Zm5.91-22.07-2.32-1c-1.23,1.58-3.21,3-3.52,4.77-.69,3.9-.56,8-.76,11.94,1.34-.5,3.67-.75,3.87-1.55C1243.73,341.09,1244.42,336.33,1245.28,331.6Z" transform="translate(-618.87 -266.61)"/><path class="cls-1" d="M1335.06,332.26c-1.4,6.11-2.36,11.46-3.91,16.64-1.13,3.77-8.44,6.09-13,4.42s-5.29-5.23-4.34-9.53c.83-3.78,1.41-7.61,2.36-11.35,1.54-6.07,10.11-9.66,15.23-6.09C1333.19,327.62,1334,330.4,1335.06,332.26Zm-15,16.7c5.59-3,9.37-14.08,7.16-16.56-.49-.54-3.92.24-4.09.91C1321.92,337.91,1321.22,342.65,1320.06,349Z" transform="translate(-618.87 -266.61)"/><circle class="cls-2" cx="484.53" cy="205.99" r="29.05"/><circle class="cls-2" cx="912.11" cy="212.42" r="29.05"/><path class="cls-1" d="M1147.89,332.7c-1.37,6.21-2.21,11.14-3.61,15.91-1.13,3.87-8,6.34-12.9,4.84s-5.42-5.18-4.68-9.4c.67-3.82,1.47-7.62,2.36-11.39,1.44-6.07,9.84-9.94,15-6.42C1146.13,327.65,1146.91,331,1147.89,332.7Zm-14.77,16.13c5.31-2.85,8.86-13.06,7.16-16.12-.36-.64-1.52-1.53-1.86-1.37-1.05.5-2.47,1.33-2.67,2.26C1134.76,338.14,1134.13,342.75,1133.12,348.83Z" transform="translate(-618.87 -266.61)"/><path class="cls-1" d="M1199.75,347c-1.44,9.08-8,7.11-12.37,6.11-2.07-.47-4.21-5.48-4.35-8.52-.2-4.21,1.29-8.55,2.35-12.76,1.2-4.71,6.72-7.71,11.74-6.5,5.85,1.4,6,6.25,4.77,10.36-.72,2.32-4.22,3.92-6.67,5.53a38.17,38.17,0,0,1-5.69,2.61,54.12,54.12,0,0,0,5.94,3.1C1196.59,347.38,1198,347,1199.75,347Z" transform="translate(-618.87 -266.61)"/><path class="cls-1" d="M1049.58,347c-1.27,8.67-7.3,6.71-11.87,6.48-5.08-.25-5.31-4.66-4.93-8.36a102,102,0,0,1,2.66-14.05c1.45-5.8,6.39-6.14,11-5.74,4.9.42,6,4.11,5.74,8.58-.34,5-2.43,7.59-7.81,7.45-1.65,0-3.35,1.64-5,2.53a33.16,33.16,0,0,0,5.36,3C1046,347.43,1047.65,347,1049.58,347Z" transform="translate(-618.87 -266.61)"/><path class="cls-1" d="M1312.61,319.38c.62,3.76.55,6.29-4.1,6.66-1.69.14-3.79,2.44-4.61,4.26-1.12,2.48-1.18,5.44-1.71,8.19-1.75,9-1.75,9,7.58,10.34,1.19,3.76.5,5.84-4.21,6.12-11.26.66-13.81-2.34-11.32-13.73.74-3.39,1.1-6.85,1.73-10.27C1298.16,319,1300.06,317.7,1312.61,319.38Z" transform="translate(-618.87 -266.61)"/><path class="cls-1" d="M1094.24,320.42c.7.82.9.95,1,1.14q1.69,5,3.35,10.1c-5.67.67-5.12,5.35-6.12,9.19-.78,3-1.77,5.47,2.55,6.56.81.2,1,2.74,1.54,4.21-3,.66-6,1.69-9.1,1.77-1,0-3-2.46-3-3.75.18-6.8.06-13.79,1.71-20.3C1087,326,1091.29,323.52,1094.24,320.42Z" transform="translate(-618.87 -266.61)"/><path class="cls-1" d="M1054.77,353.53c.71-6.29,1.26-11.42,1.88-16.55.29-2.42,5.44-13,7.4-15.48,1.79,1.74,4.12,3.21,5.16,5.31.62,1.28-.15,4.29-1.33,5.24-5.62,4.52-6.33,10.3-2.07,15.5.78,1-.42,5.27-1.58,5.7C1061.8,354.16,1058.78,353.53,1054.77,353.53Z" transform="translate(-618.87 -266.61)"/><path class="cls-1" d="M1076.85,353.27h-7.32c1.87-11.48,3.66-22.5,5.51-33.9h7.2C1080.4,330.89,1078.68,341.73,1076.85,353.27Z" transform="translate(-618.87 -266.61)"/><path class="cls-1" d="M1282.17,353.13v-7.4l6.48,4.15-5.07,4.49Z" transform="translate(-618.87 -266.61)"/><path d="M1021.71,418.14c2.41,0,5.1-.65,7.15.2,1.79.74,4.05,3.28,3.94,4.86s-2.77,3.94-4.59,4.23a38.46,38.46,0,0,1-12.44,0c-1.94-.34-3.48-3-5.2-4.58,1.74-1.59,3.25-3.66,5.29-4.62,1.62-.76,3.88-.15,5.85-.15Zm7.89,7.23L1030,423c-3.28-4.86-8.72-2.21-13.19-2.58-1.15-.1-2.45,1.67-3.68,2.58,1.15.8,2.26,2.2,3.46,2.27C1020.93,425.54,1025.27,425.37,1029.6,425.37Z" transform="translate(-618.87 -266.61)"/><path d="M1007.44,422.81c-2.67,1.76-5.17,4.6-8,5-4.53.71-6.58-2.84-6.45-7.08s1.95-6.77,6.91-6.72C1005,414.11,1006,417.18,1007.44,422.81Zm-2-1.39c-2.41-2.17-4.12-4.77-5.32-4.55-1.85.33-3.34,2.6-5,4.05,1.54,1.46,2.9,3.7,4.68,4.1C1001.12,425.3,1003,423.13,1005.46,421.42Z" transform="translate(-618.87 -266.61)"/><path d="M1589.24,421.23c-2.4,0-5.14.71-7.1-.22a7.73,7.73,0,0,1-3.77-5.34c-.13-1.16,2.63-3.61,4.3-3.82a52.36,52.36,0,0,1,13.06,0c1.75.21,4.77,2.69,4.58,3.55a9,9,0,0,1-4,5.63C1594.42,422,1591.64,421.24,1589.24,421.23Zm-8.79-7.26c.28,1.79.35,3.32.55,3.33q8,.65,16.07.9c.25,0,1-1.84.73-2.14-.78-.88-1.92-1.95-3-2C1590.17,413.85,1585.49,414,1580.45,414Z" transform="translate(-618.87 -266.61)"/><path d="M1411.83,370.67c-2.41,0-4.94.46-7.18-.13-2-.55-3.77-2.24-5.64-3.42,1.46-1.71,2.77-4.71,4.39-4.88a87.58,87.58,0,0,1,17,.05c1.26.11,3.2,2.95,3.14,4.48,0,1.34-2.27,3.3-3.86,3.71-2.47.63-5.21.17-7.83.17Zm10.29-2.77c-5.35-5.37-16.95-4.84-19.15,0Z" transform="translate(-618.87 -266.61)"/><path class="cls-2" d="M1484.56,310.28q-7.21-8.17-14.44-16.33l1.45-1.3L1486,309Z" transform="translate(-618.87 -266.61)"/><path d="M1103.3,457.43c10.24,0,16.46,5.52,16.35,14.59A15.74,15.74,0,0,1,1104,487.8c-11.55.18-16.69-7.5-16.88-15.11C1087,464.73,1091.25,456.91,1103.3,457.43Zm.18,2.15c-7.2-.07-14,6.15-14.06,12.79,0,6.13,7.36,13,13.95,13,7.26,0,13.94-6.15,13.94-12.84C1117.31,465.68,1110.89,459.66,1103.48,459.58Z" transform="translate(-618.87 -266.61)"/><path d="M1530.78,495.1c-9.06-.07-16.33-7-16.16-15.36a16.34,16.34,0,0,1,16.27-16.08c9,0,16.92,7.33,16.42,15.82C1546.82,487.77,1541.4,495.14,1530.78,495.1Zm.41-29.18c-6.42-.18-14.24,7.32-14.2,13.64,0,6.71,6.5,13.12,13.53,13.44,6.64.3,14-6.07,14.51-12.46S1537.75,466.11,1531.19,465.92Z" transform="translate(-618.87 -266.61)"/><path class="cls-2" d="M1245.28,331.6c-.86,4.73-1.55,9.49-2.73,14.13-.2.8-2.53,1-3.87,1.55.2-4,.07-8,.76-11.94.31-1.75,2.29-3.19,3.52-4.77Z" transform="translate(-618.87 -266.61)"/><path class="cls-2" d="M1320.06,349c1.16-6.31,1.86-11,3.07-15.65.17-.67,3.6-1.45,4.09-.91C1329.43,334.88,1325.65,345.92,1320.06,349Z" transform="translate(-618.87 -266.61)"/><path class="cls-2" d="M1133.12,348.83c1-6.08,1.64-10.69,2.63-15.23.2-.93,1.62-1.76,2.67-2.26.34-.16,1.5.73,1.86,1.37C1142,335.77,1138.43,346,1133.12,348.83Z" transform="translate(-618.87 -266.61)"/><path class="cls-2" d="M1580.45,414c5,0,9.72-.12,14.39.09,1,.05,2.18,1.12,3,2,.26.3-.48,2.15-.73,2.14q-8-.26-16.07-.9C1580.8,417.29,1580.73,415.76,1580.45,414Z" transform="translate(-618.87 -266.61)"/><path class="cls-2" d="M1422.12,367.9H1403C1405.17,363.06,1416.77,362.53,1422.12,367.9Z" transform="translate(-618.87 -266.61)"/><path class="cls-2" d="M1531.19,465.92c6.56.19,14.29,8.35,13.84,14.62s-7.87,12.76-14.51,12.46c-7-.32-13.48-6.73-13.53-13.44C1517,473.24,1524.77,465.74,1531.19,465.92Z" transform="translate(-618.87 -266.61)"/><path d="M1573.91,467.14" transform="translate(-618.87 -266.61)"/></svg>